<svg id="visual" viewBox="0 0 900 600" width="900" height="600" xmlns="http://www.w3.org/2000/svg" xmlns:xlink="http://www.w3.org/1999/xlink" version="1.1"><g stroke-width="1" stroke-linejoin="bevel"><path d="M480 236.4L525 220.1L457 204.1Z" fill="#cdb8b3" stroke="#cdb8b3"></path><path d="M525 220.1L510 109.4L457 204.1Z" fill="#ede9e3" stroke="#ede9e3"></path><path d="M373 87.7L345 189.4L457 204.1Z" fill="#ede9e3" stroke="#ede9e3"></path><path d="M457 204.1L329 280.1L480 236.4Z" fill="#987b8d" stroke="#987b8d"></path><path d="M588 384.9L636 267.1L525 220.1Z" fill="#d7c8c2" stroke="#d7c8c2"></path><path d="M525 220.1L613 90.7L510 109.4Z" fill="#c2a8a7" stroke="#c2a8a7"></path><path d="M510 109.4L373 87.7L457 204.1Z" fill="#a88994" stroke="#a88994"></path><path d="M613 90.7L511 43.7L510 109.4Z" fill="#716280" stroke="#716280"></path><path d="M510 109.4L511 43.7L457 47.7Z" fill="#d7c8c2" stroke="#d7c8c2"></path><path d="M650 128.4L613 90.7L525 220.1Z" fill="#866e86" stroke="#866e86"></path><path d="M457 47.7L373 87.7L510 109.4Z" fill="#c2a8a7" stroke="#c2a8a7"></path><path d="M636 267.1L650 128.4L525 220.1Z" fill="#a88994" stroke="#a88994"></path><path d="M345 189.4L329 280.1L457 204.1Z" fill="#716280" stroke="#716280"></path><path d="M480 236.4L529 387.9L525 220.1Z" fill="#faf9f6" stroke="#faf9f6"></path><path d="M500 402.9L529 387.9L480 236.4Z" fill="#716280" stroke="#716280"></path><path d="M336 379.9L500 402.9L480 236.4Z" fill="#a88994" stroke="#a88994"></path><path d="M511 43.7L491 0L457 47.7Z" fill="#cdb8b3" stroke="#cdb8b3"></path><path d="M457 47.7L392 0L373 87.7Z" fill="#866e86" stroke="#866e86"></path><path d="M686 0L491 0L511 43.7Z" fill="#b6989d" stroke="#b6989d"></path><path d="M591 429.6L588 384.9L529 387.9Z" fill="#c2a8a7" stroke="#c2a8a7"></path><path d="M529 387.9L588 384.9L525 220.1Z" fill="#ede9e3" stroke="#ede9e3"></path><path d="M258 207.1L308 297.9L329 280.1Z" fill="#866e86" stroke="#866e86"></path><path d="M329 280.1L336 379.9L480 236.4Z" fill="#a88994" stroke="#a88994"></path><path d="M258 207.1L329 280.1L345 189.4Z" fill="#e2d9d2" stroke="#e2d9d2"></path><path d="M491 0L392 0L457 47.7Z" fill="#b6989d" stroke="#b6989d"></path><path d="M373 87.7L258 207.1L345 189.4Z" fill="#ede9e3" stroke="#ede9e3"></path><path d="M676 380.6L704 299.9L636 267.1Z" fill="#716280" stroke="#716280"></path><path d="M636 267.1L741 217.4L650 128.4Z" fill="#c2a8a7" stroke="#c2a8a7"></path><path d="M210 53.7L258 207.1L373 87.7Z" fill="#ede9e3" stroke="#ede9e3"></path><path d="M301 377.6L336 379.9L308 297.9Z" fill="#cdb8b3" stroke="#cdb8b3"></path><path d="M308 297.9L336 379.9L329 280.1Z" fill="#987b8d" stroke="#987b8d"></path><path d="M372 438.6L470 440.6L500 402.9Z" fill="#a88994" stroke="#a88994"></path><path d="M500 402.9L591 429.6L529 387.9Z" fill="#a88994" stroke="#a88994"></path><path d="M392 0L328 27.7L373 87.7Z" fill="#b6989d" stroke="#b6989d"></path><path d="M748 148.4L706 84.7L650 128.4Z" fill="#ede9e3" stroke="#ede9e3"></path><path d="M650 128.4L706 84.7L613 90.7Z" fill="#faf9f6" stroke="#faf9f6"></path><path d="M613 90.7L686 0L511 43.7Z" fill="#e2d9d2" stroke="#e2d9d2"></path><path d="M594 472.6L591 429.6L500 402.9Z" fill="#987b8d" stroke="#987b8d"></path><path d="M588 384.9L676 380.6L636 267.1Z" fill="#c2a8a7" stroke="#c2a8a7"></path><path d="M704 299.9L741 217.4L636 267.1Z" fill="#d7c8c2" stroke="#d7c8c2"></path><path d="M591 429.6L676 380.6L588 384.9Z" fill="#d7c8c2" stroke="#d7c8c2"></path><path d="M795 254.1L763 189.1L741 217.4Z" fill="#d7c8c2" stroke="#d7c8c2"></path><path d="M237 386.6L301 377.6L308 297.9Z" fill="#b6989d" stroke="#b6989d"></path><path d="M336 379.9L372 438.6L500 402.9Z" fill="#c2a8a7" stroke="#c2a8a7"></path><path d="M741 217.4L748 148.4L650 128.4Z" fill="#b6989d" stroke="#b6989d"></path><path d="M301 377.6L372 438.6L336 379.9Z" fill="#716280" stroke="#716280"></path><path d="M249 518.3L380 447.3L372 438.6Z" fill="#866e86" stroke="#866e86"></path><path d="M372 438.6L380 447.3L470 440.6Z" fill="#d7c8c2" stroke="#d7c8c2"></path><path d="M741 217.4L763 189.1L748 148.4Z" fill="#716280" stroke="#716280"></path><path d="M795 254.1L741 217.4L704 299.9Z" fill="#987b8d" stroke="#987b8d"></path><path d="M696 0L686 0L706 84.7Z" fill="#cdb8b3" stroke="#cdb8b3"></path><path d="M706 84.7L686 0L613 90.7Z" fill="#d7c8c2" stroke="#d7c8c2"></path><path d="M380 447.3L425 475.3L470 440.6Z" fill="#a88994" stroke="#a88994"></path><path d="M470 440.6L594 472.6L500 402.9Z" fill="#ede9e3" stroke="#ede9e3"></path><path d="M392 0L296 0L328 27.7Z" fill="#ede9e3" stroke="#ede9e3"></path><path d="M210 53.7L205 180.4L258 207.1Z" fill="#e2d9d2" stroke="#e2d9d2"></path><path d="M808 0L696 0L706 84.7Z" fill="#866e86" stroke="#866e86"></path><path d="M808 0L706 84.7L748 148.4Z" fill="#b6989d" stroke="#b6989d"></path><path d="M591 429.6L679 459.3L676 380.6Z" fill="#ede9e3" stroke="#ede9e3"></path><path d="M520 562.3L594 472.6L470 440.6Z" fill="#b6989d" stroke="#b6989d"></path><path d="M210 53.7L373 87.7L328 27.7Z" fill="#716280" stroke="#716280"></path><path d="M258 207.1L183 217.1L308 297.9Z" fill="#ede9e3" stroke="#ede9e3"></path><path d="M594 472.6L611 469.3L591 429.6Z" fill="#d7c8c2" stroke="#d7c8c2"></path><path d="M763 371.9L704 299.9L676 380.6Z" fill="#cdb8b3" stroke="#cdb8b3"></path><path d="M763 371.9L795 254.1L704 299.9Z" fill="#e2d9d2" stroke="#e2d9d2"></path><path d="M862 119.7L808 0L748 148.4Z" fill="#a88994" stroke="#a88994"></path><path d="M157 183.4L183 217.1L205 180.4Z" fill="#d7c8c2" stroke="#d7c8c2"></path><path d="M205 180.4L183 217.1L258 207.1Z" fill="#cdb8b3" stroke="#cdb8b3"></path><path d="M296 0L252 0L328 27.7Z" fill="#866e86" stroke="#866e86"></path><path d="M481 600L520 562.3L425 475.3Z" fill="#e2d9d2" stroke="#e2d9d2"></path><path d="M301 377.6L249 518.3L372 438.6Z" fill="#987b8d" stroke="#987b8d"></path><path d="M167 363.9L237 386.6L308 297.9Z" fill="#e2d9d2" stroke="#e2d9d2"></path><path d="M748 600L679 459.3L611 469.3Z" fill="#ede9e3" stroke="#ede9e3"></path><path d="M611 469.3L679 459.3L591 429.6Z" fill="#e2d9d2" stroke="#e2d9d2"></path><path d="M758 463.3L763 371.9L676 380.6Z" fill="#b6989d" stroke="#b6989d"></path><path d="M252 0L210 53.7L328 27.7Z" fill="#b6989d" stroke="#b6989d"></path><path d="M122 154.4L157 183.4L205 180.4Z" fill="#d7c8c2" stroke="#d7c8c2"></path><path d="M183 217.1L143 270.1L308 297.9Z" fill="#a88994" stroke="#a88994"></path><path d="M157 183.4L143 270.1L183 217.1Z" fill="#cdb8b3" stroke="#cdb8b3"></path><path d="M481 600L425 475.3L410 600Z" fill="#cdb8b3" stroke="#cdb8b3"></path><path d="M425 475.3L520 562.3L470 440.6Z" fill="#c2a8a7" stroke="#c2a8a7"></path><path d="M594 472.6L565 600L611 469.3Z" fill="#b6989d" stroke="#b6989d"></path><path d="M143 270.1L167 363.9L308 297.9Z" fill="#866e86" stroke="#866e86"></path><path d="M410 600L425 475.3L370 600Z" fill="#e2d9d2" stroke="#e2d9d2"></path><path d="M210 53.7L122 154.4L205 180.4Z" fill="#ede9e3" stroke="#ede9e3"></path><path d="M157 183.4L122 154.4L143 270.1Z" fill="#b6989d" stroke="#b6989d"></path><path d="M252 0L184 0L210 53.7Z" fill="#716280" stroke="#716280"></path><path d="M748 600L758 463.3L679 459.3Z" fill="#faf9f6" stroke="#faf9f6"></path><path d="M679 459.3L758 463.3L676 380.6Z" fill="#cdb8b3" stroke="#cdb8b3"></path><path d="M763 371.9L900 300.1L795 254.1Z" fill="#ede9e3" stroke="#ede9e3"></path><path d="M49 96.7L122 154.4L210 53.7Z" fill="#866e86" stroke="#866e86"></path><path d="M862 119.7L748 148.4L763 189.1Z" fill="#716280" stroke="#716280"></path><path d="M900 148.4L862 119.7L763 189.1Z" fill="#b6989d" stroke="#b6989d"></path><path d="M900 148.4L763 189.1L795 254.1Z" fill="#d7c8c2" stroke="#d7c8c2"></path><path d="M758 463.3L829 411.6L763 371.9Z" fill="#716280" stroke="#716280"></path><path d="M249 518.3L301 377.6L237 386.6Z" fill="#ede9e3" stroke="#ede9e3"></path><path d="M520 562.3L565 600L594 472.6Z" fill="#e2d9d2" stroke="#e2d9d2"></path><path d="M143 270.1L146 396.9L167 363.9Z" fill="#e2d9d2" stroke="#e2d9d2"></path><path d="M167 363.9L146 396.9L237 386.6Z" fill="#d7c8c2" stroke="#d7c8c2"></path><path d="M114 441.6L146 396.9L0 315.9Z" fill="#987b8d" stroke="#987b8d"></path><path d="M146 396.9L249 518.3L237 386.6Z" fill="#716280" stroke="#716280"></path><path d="M481 600L565 600L520 562.3Z" fill="#cdb8b3" stroke="#cdb8b3"></path><path d="M370 600L425 475.3L380 447.3Z" fill="#cdb8b3" stroke="#cdb8b3"></path><path d="M900 300.1L900 148.4L795 254.1Z" fill="#716280" stroke="#716280"></path><path d="M862 119.7L900 0L808 0Z" fill="#c2a8a7" stroke="#c2a8a7"></path><path d="M900 148.4L900 146.7L862 119.7Z" fill="#866e86" stroke="#866e86"></path><path d="M319 600L370 600L380 447.3Z" fill="#987b8d" stroke="#987b8d"></path><path d="M829 411.6L900 300.1L763 371.9Z" fill="#a88994" stroke="#a88994"></path><path d="M249 518.3L319 600L380 447.3Z" fill="#987b8d" stroke="#987b8d"></path><path d="M0 315.9L146 396.9L143 270.1Z" fill="#cdb8b3" stroke="#cdb8b3"></path><path d="M146 396.9L126 505.3L249 518.3Z" fill="#e2d9d2" stroke="#e2d9d2"></path><path d="M249 518.3L210 600L319 600Z" fill="#c2a8a7" stroke="#c2a8a7"></path><path d="M900 409.6L900 398.9L829 411.6Z" fill="#faf9f6" stroke="#faf9f6"></path><path d="M829 411.6L900 398.9L900 300.1Z" fill="#c2a8a7" stroke="#c2a8a7"></path><path d="M900 409.6L829 411.6L900 533.3Z" fill="#cdb8b3" stroke="#cdb8b3"></path><path d="M900 146.7L900 0L862 119.7Z" fill="#e2d9d2" stroke="#e2d9d2"></path><path d="M900 533.3L829 411.6L758 463.3Z" fill="#a88994" stroke="#a88994"></path><path d="M184 0L49 96.7L210 53.7Z" fill="#e2d9d2" stroke="#e2d9d2"></path><path d="M122 154.4L0 220.1L143 270.1Z" fill="#ede9e3" stroke="#ede9e3"></path><path d="M565 600L748 600L611 469.3Z" fill="#987b8d" stroke="#987b8d"></path><path d="M79 548.3L126 505.3L114 441.6Z" fill="#cdb8b3" stroke="#cdb8b3"></path><path d="M114 441.6L126 505.3L146 396.9Z" fill="#ede9e3" stroke="#ede9e3"></path><path d="M126 505.3L210 600L249 518.3Z" fill="#faf9f6" stroke="#faf9f6"></path><path d="M184 0L46 0L49 96.7Z" fill="#cdb8b3" stroke="#cdb8b3"></path><path d="M0 164.4L122 154.4L49 96.7Z" fill="#716280" stroke="#716280"></path><path d="M0 164.4L0 220.1L122 154.4Z" fill="#cdb8b3" stroke="#cdb8b3"></path><path d="M0 65.7L0 164.4L49 96.7Z" fill="#c2a8a7" stroke="#c2a8a7"></path><path d="M0 220.1L0 315.9L143 270.1Z" fill="#716280" stroke="#716280"></path><path d="M46 0L0 65.7L49 96.7Z" fill="#d7c8c2" stroke="#d7c8c2"></path><path d="M867 600L900 533.3L758 463.3Z" fill="#cdb8b3" stroke="#cdb8b3"></path><path d="M46 0L0 0L0 65.7Z" fill="#b6989d" stroke="#b6989d"></path><path d="M0 451.6L79 548.3L114 441.6Z" fill="#faf9f6" stroke="#faf9f6"></path><path d="M126 505.3L79 548.3L210 600Z" fill="#b6989d" stroke="#b6989d"></path><path d="M748 600L867 600L758 463.3Z" fill="#ede9e3" stroke="#ede9e3"></path><path d="M0 315.9L0 451.6L114 441.6Z" fill="#e2d9d2" stroke="#e2d9d2"></path><path d="M867 600L900 600L900 533.3Z" fill="#ede9e3" stroke="#ede9e3"></path><path d="M0 533.3L57 600L79 548.3Z" fill="#987b8d" stroke="#987b8d"></path><path d="M79 548.3L57 600L210 600Z" fill="#d7c8c2" stroke="#d7c8c2"></path><path d="M0 451.6L0 533.3L79 548.3Z" fill="#987b8d" stroke="#987b8d"></path><path d="M0 533.3L0 600L57 600Z" fill="#987b8d" stroke="#987b8d"></path></g></svg>